<?xml version="1.0" encoding="UTF-8" standalone="no"?>
<!DOCTYPE svg PUBLIC "-//W3C//DTD SVG 1.1//EN"
 "http://www.w3.org/Graphics/SVG/1.1/DTD/svg11.dtd">
<!-- Generated by graphviz version 13.1.2 (0)
 -->
<!-- Pages: 1 -->
<svg width="153pt" height="260pt"
 viewBox="0.00 0.00 153.00 260.00" xmlns="http://www.w3.org/2000/svg" xmlns:xlink="http://www.w3.org/1999/xlink">
<g id="graph0" class="graph" transform="scale(1 1) rotate(0) translate(4 256)">
<polygon fill="white" stroke="none" points="-4,4 -4,-256 149,-256 149,4 -4,4"/>
<!-- 1 -->
<g id="node1" class="node">
<title>1</title>
<ellipse fill="none" stroke="black" cx="73" cy="-234" rx="27" ry="18"/>
<text xml:space="preserve" text-anchor="middle" x="73" y="-229.32" font-family="Times,serif" font-size="14.00">1</text>
</g>
<!-- 1&#45;&gt;1 -->
<g id="edge1" class="edge">
<title>1&#45;&gt;1</title>
<path fill="none" stroke="black" d="M92.9,-246.43C105.69,-249.68 118,-245.53 118,-234 118,-225.98 112.05,-221.54 104.12,-220.66"/>
<polygon fill="black" stroke="black" points="104.09,-217.15 94.4,-221.45 104.65,-224.13 104.09,-217.15"/>
</g>
<!-- 2 -->
<g id="node2" class="node">
<title>2</title>
<ellipse fill="none" stroke="black" cx="73" cy="-162" rx="27" ry="18"/>
<text xml:space="preserve" text-anchor="middle" x="73" y="-157.32" font-family="Times,serif" font-size="14.00">2</text>
</g>
<!-- 1&#45;&gt;2 -->
<g id="edge2" class="edge">
<title>1&#45;&gt;2</title>
<path fill="none" stroke="black" d="M73,-215.7C73,-208.41 73,-199.73 73,-191.54"/>
<polygon fill="black" stroke="black" points="76.5,-191.62 73,-181.62 69.5,-191.62 76.5,-191.62"/>
</g>
<!-- 3 -->
<g id="node3" class="node">
<title>3</title>
<ellipse fill="none" stroke="black" cx="27" cy="-90" rx="27" ry="18"/>
<text xml:space="preserve" text-anchor="middle" x="27" y="-85.33" font-family="Times,serif" font-size="14.00">3</text>
</g>
<!-- 1&#45;&gt;3 -->
<g id="edge3" class="edge">
<title>1&#45;&gt;3</title>
<path fill="none" stroke="black" d="M59.79,-217.89C51.79,-207.85 42.17,-193.98 37,-180 29.86,-160.69 27.43,-137.54 26.75,-119.69"/>
<polygon fill="black" stroke="black" points="30.25,-119.73 26.55,-109.81 23.25,-119.87 30.25,-119.73"/>
</g>
<!-- 4 -->
<g id="node4" class="node">
<title>4</title>
<ellipse fill="none" stroke="black" cx="100" cy="-18" rx="27" ry="18"/>
<text xml:space="preserve" text-anchor="middle" x="100" y="-13.32" font-family="Times,serif" font-size="14.00">4</text>
</g>
<!-- 1&#45;&gt;4 -->
<g id="edge4" class="edge">
<title>1&#45;&gt;4</title>
<path fill="none" stroke="black" stroke-dasharray="5,2" d="M91.83,-220.66C104.4,-211.22 119.88,-196.96 127,-180 145.82,-135.15 127.28,-78.09 113.01,-45.34"/>
<polygon fill="black" stroke="black" points="116.35,-44.24 109.02,-36.59 109.98,-47.14 116.35,-44.24"/>
</g>
<!-- 2&#45;&gt;2 -->
<g id="edge5" class="edge">
<title>2&#45;&gt;2</title>
<path fill="none" stroke="black" d="M92.9,-174.43C105.69,-177.68 118,-173.53 118,-162 118,-153.98 112.05,-149.54 104.12,-148.66"/>
<polygon fill="black" stroke="black" points="104.09,-145.15 94.4,-149.45 104.65,-152.13 104.09,-145.15"/>
</g>
<!-- 2&#45;&gt;3 -->
<g id="edge6" class="edge">
<title>2&#45;&gt;3</title>
<path fill="none" stroke="black" d="M62.56,-145.12C56.97,-136.61 49.96,-125.94 43.64,-116.32"/>
<polygon fill="black" stroke="black" points="46.64,-114.52 38.23,-108.09 40.79,-118.37 46.64,-114.52"/>
</g>
<!-- 2&#45;&gt;4 -->
<g id="edge7" class="edge">
<title>2&#45;&gt;4</title>
<path fill="none" stroke="black" d="M76.26,-143.87C80.82,-119.88 89.16,-75.99 94.65,-47.16"/>
<polygon fill="black" stroke="black" points="98.02,-48.15 96.45,-37.68 91.14,-46.85 98.02,-48.15"/>
</g>
<!-- 3&#45;&gt;3 -->
<g id="edge8" class="edge">
<title>3&#45;&gt;3</title>
<path fill="none" stroke="black" d="M46.9,-102.43C59.69,-105.68 72,-101.53 72,-90 72,-81.98 66.05,-77.54 58.12,-76.66"/>
<polygon fill="black" stroke="black" points="58.09,-73.15 48.4,-77.45 58.65,-80.13 58.09,-73.15"/>
</g>
<!-- 3&#45;&gt;4 -->
<g id="edge9" class="edge">
<title>3&#45;&gt;4</title>
<path fill="none" stroke="black" d="M41.77,-74.83C51.8,-65.22 65.26,-52.31 76.72,-41.32"/>
<polygon fill="black" stroke="black" points="79.11,-43.88 83.91,-34.43 74.27,-38.83 79.11,-43.88"/>
</g>
<!-- 4&#45;&gt;4 -->
<g id="edge10" class="edge">
<title>4&#45;&gt;4</title>
<path fill="none" stroke="black" d="M119.9,-30.43C132.69,-33.68 145,-29.53 145,-18 145,-9.98 139.05,-5.54 131.12,-4.66"/>
<polygon fill="black" stroke="black" points="131.09,-1.15 121.4,-5.45 131.65,-8.13 131.09,-1.15"/>
</g>
</g>
</svg>
