<?xml version="1.0" encoding="UTF-8" standalone="no"?>
<!DOCTYPE svg PUBLIC "-//W3C//DTD SVG 1.1//EN"
 "http://www.w3.org/Graphics/SVG/1.1/DTD/svg11.dtd">
<!-- Generated by graphviz version 13.1.2 (0)
 -->
<!-- Pages: 1 -->
<svg width="242pt" height="62pt"
 viewBox="0.00 0.00 242.00 62.00" xmlns="http://www.w3.org/2000/svg" xmlns:xlink="http://www.w3.org/1999/xlink">
<g id="graph0" class="graph" transform="scale(1 1) rotate(0) translate(4 58)">
<polygon fill="white" stroke="none" points="-4,4 -4,-58 238,-58 238,4 -4,4"/>
<!-- 1 -->
<g id="node1" class="node">
<title>1</title>
<ellipse fill="none" stroke="black" cx="27" cy="-18" rx="27" ry="18"/>
<text xml:space="preserve" text-anchor="middle" x="27" y="-13.32" font-family="Times,serif" font-size="14.00">1</text>
</g>
<!-- 2 -->
<g id="node2" class="node">
<title>2</title>
<ellipse fill="none" stroke="black" cx="117" cy="-18" rx="27" ry="18"/>
<text xml:space="preserve" text-anchor="middle" x="117" y="-13.32" font-family="Times,serif" font-size="14.00">2</text>
</g>
<!-- 1&#45;&gt;2 -->
<g id="edge1" class="edge">
<title>1&#45;&gt;2</title>
<path fill="none" stroke="black" d="M54.4,-18C61.89,-18 70.18,-18 78.2,-18"/>
<polygon fill="black" stroke="black" points="78.1,-21.5 88.1,-18 78.1,-14.5 78.1,-21.5"/>
</g>
<!-- 2&#45;&gt;2 -->
<g id="edge2" class="edge">
<title>2&#45;&gt;2</title>
<path fill="none" stroke="black" d="M101.77,-33.17C97.16,-43.66 102.23,-54 117,-54 126.23,-54 131.67,-49.96 133.33,-44.37"/>
<polygon fill="black" stroke="black" points="136.84,-44.28 132.38,-34.67 129.87,-44.97 136.84,-44.28"/>
</g>
<!-- 3 -->
<g id="node3" class="node">
<title>3</title>
<ellipse fill="none" stroke="black" cx="207" cy="-18" rx="27" ry="18"/>
<text xml:space="preserve" text-anchor="middle" x="207" y="-13.32" font-family="Times,serif" font-size="14.00">3</text>
</g>
<!-- 2&#45;&gt;3 -->
<g id="edge3" class="edge">
<title>2&#45;&gt;3</title>
<path fill="none" stroke="black" d="M144.4,-18C151.89,-18 160.18,-18 168.2,-18"/>
<polygon fill="black" stroke="black" points="168.1,-21.5 178.1,-18 168.1,-14.5 168.1,-21.5"/>
</g>
</g>
</svg>
