<?xml version="1.0" encoding="UTF-8" standalone="no"?>
<!DOCTYPE svg PUBLIC "-//W3C//DTD SVG 1.1//EN"
 "http://www.w3.org/Graphics/SVG/1.1/DTD/svg11.dtd">
<!-- Generated by graphviz version 14.0.1 (0)
 -->
<!-- Pages: 1 -->
<svg width="188pt" height="169pt"
 viewBox="0.00 0.00 188.00 169.00" xmlns="http://www.w3.org/2000/svg" xmlns:xlink="http://www.w3.org/1999/xlink">
<g id="graph0" class="graph" transform="scale(1 1) rotate(0) translate(4 165.35)">
<polygon fill="white" stroke="none" points="-4,4 -4,-165.35 184.19,-165.35 184.19,4 -4,4"/>
<!-- 1 -->
<g id="node1" class="node">
<title>1</title>
<ellipse fill="none" stroke="black" cx="153.19" cy="-89.17" rx="27" ry="18"/>
<text xml:space="preserve" text-anchor="middle" x="153.19" y="-84.5" font-family="Times,serif" font-size="14.00">1</text>
</g>
<!-- 2 -->
<g id="node2" class="node">
<title>2</title>
<ellipse fill="none" stroke="black" cx="119.54" cy="-18" rx="27" ry="18"/>
<text xml:space="preserve" text-anchor="middle" x="119.54" y="-13.32" font-family="Times,serif" font-size="14.00">2</text>
</g>
<!-- 1&#45;&gt;2 -->
<g id="edge1" class="edge">
<title>1&#45;&gt;2</title>
<path fill="none" stroke="black" d="M144.87,-71.58C141.17,-63.74 136.71,-54.31 132.58,-45.57"/>
<polygon fill="black" stroke="black" points="135.85,-44.3 128.41,-36.76 129.52,-47.3 135.85,-44.3"/>
</g>
<!-- 3 -->
<g id="node3" class="node">
<title>3</title>
<ellipse fill="none" stroke="black" cx="41.49" cy="-28.21" rx="27" ry="18"/>
<text xml:space="preserve" text-anchor="middle" x="41.49" y="-23.53" font-family="Times,serif" font-size="14.00">3</text>
</g>
<!-- 2&#45;&gt;3 -->
<g id="edge2" class="edge">
<title>2&#45;&gt;3</title>
<path fill="none" stroke="black" d="M92.68,-21.51C88.51,-22.06 84.14,-22.63 79.77,-23.2"/>
<polygon fill="black" stroke="black" points="79.36,-19.72 69.9,-24.49 80.27,-26.66 79.36,-19.72"/>
</g>
<!-- 4 -->
<g id="node4" class="node">
<title>4</title>
<ellipse fill="none" stroke="black" cx="27" cy="-105.6" rx="27" ry="18"/>
<text xml:space="preserve" text-anchor="middle" x="27" y="-100.92" font-family="Times,serif" font-size="14.00">4</text>
</g>
<!-- 3&#45;&gt;4 -->
<g id="edge3" class="edge">
<title>3&#45;&gt;4</title>
<path fill="none" stroke="black" d="M38.06,-46.55C36.4,-55.41 34.36,-66.27 32.49,-76.25"/>
<polygon fill="black" stroke="black" points="29.09,-75.43 30.69,-85.9 35.97,-76.71 29.09,-75.43"/>
</g>
<!-- 5 -->
<g id="node5" class="node">
<title>5</title>
<ellipse fill="none" stroke="black" cx="96.07" cy="-143.35" rx="27" ry="18"/>
<text xml:space="preserve" text-anchor="middle" x="96.07" y="-138.67" font-family="Times,serif" font-size="14.00">5</text>
</g>
<!-- 4&#45;&gt;5 -->
<g id="edge4" class="edge">
<title>4&#45;&gt;5</title>
<path fill="none" stroke="black" d="M48.1,-117.13C53.45,-120.06 59.32,-123.26 65.06,-126.4"/>
<polygon fill="black" stroke="black" points="63.32,-129.44 73.77,-131.16 66.68,-123.29 63.32,-129.44"/>
</g>
<!-- 5&#45;&gt;1 -->
<g id="edge5" class="edge">
<title>5&#45;&gt;1</title>
<path fill="none" stroke="black" d="M111.68,-128.55C117.22,-123.29 123.59,-117.25 129.64,-111.51"/>
<polygon fill="black" stroke="black" points="131.66,-114.42 136.5,-105 126.84,-109.34 131.66,-114.42"/>
</g>
</g>
</svg>
