<?xml version="1.0" encoding="UTF-8" standalone="no"?>
<!DOCTYPE svg PUBLIC "-//W3C//DTD SVG 1.1//EN"
 "http://www.w3.org/Graphics/SVG/1.1/DTD/svg11.dtd">
<!-- Generated by graphviz version 13.1.2 (0)
 -->
<!-- Pages: 1 -->
<svg width="435pt" height="157pt"
 viewBox="0.00 0.00 435.00 157.00" xmlns="http://www.w3.org/2000/svg" xmlns:xlink="http://www.w3.org/1999/xlink">
<g id="graph0" class="graph" transform="scale(1 1) rotate(0) translate(4 152.83)">
<polygon fill="white" stroke="none" points="-4,4 -4,-152.83 431.15,-152.83 431.15,4 -4,4"/>
<!-- a -->
<g id="node1" class="node">
<title>a</title>
<ellipse fill="none" stroke="black" cx="29.64" cy="-82" rx="29.64" ry="18"/>
<text xml:space="preserve" text-anchor="middle" x="29.64" y="-77.33" font-family="Times,serif" font-size="14.00">$a$</text>
</g>
<!-- b -->
<g id="node2" class="node">
<title>b</title>
<ellipse fill="none" stroke="black" cx="152.44" cy="-78" rx="30.16" ry="18"/>
<text xml:space="preserve" text-anchor="middle" x="152.44" y="-73.33" font-family="Times,serif" font-size="14.00">$b$</text>
</g>
<!-- a&#45;&gt;b -->
<g id="edge1" class="edge">
<title>a&#45;&gt;b</title>
<path fill="none" stroke="black" d="M59.67,-81.31C73.22,-80.97 89.58,-80.51 104.28,-80 106.34,-79.93 108.45,-79.85 110.58,-79.77"/>
<polygon fill="black" stroke="black" points="110.64,-83.27 120.49,-79.38 110.36,-76.28 110.64,-83.27"/>
<text xml:space="preserve" text-anchor="middle" x="90.78" y="-84.77" font-family="Times,serif" font-size="14.00">$5$</text>
</g>
<!-- c -->
<g id="node3" class="node">
<title>c</title>
<ellipse fill="none" stroke="black" cx="398.04" cy="-78" rx="29.11" ry="18"/>
<text xml:space="preserve" text-anchor="middle" x="398.04" y="-73.33" font-family="Times,serif" font-size="14.00">$c$</text>
</g>
<!-- a&#45;&gt;c -->
<g id="edge2" class="edge">
<title>a&#45;&gt;c</title>
<path fill="none" stroke="black" d="M53.43,-93.26C60.88,-96.53 69.29,-99.81 77.28,-102 175.74,-128.99 205.15,-140.35 305.93,-124 326.74,-120.62 332.01,-118.3 350.93,-109 357.14,-105.95 363.49,-102.17 369.42,-98.32"/>
<polygon fill="black" stroke="black" points="371.34,-101.24 377.64,-92.72 367.4,-95.45 371.34,-101.24"/>
<text xml:space="preserve" text-anchor="middle" x="214.1" y="-135.53" font-family="Times,serif" font-size="14.00">$3$</text>
</g>
<!-- d -->
<g id="node4" class="node">
<title>d</title>
<ellipse fill="none" stroke="black" cx="275.77" cy="-18" rx="30.16" ry="18"/>
<text xml:space="preserve" text-anchor="middle" x="275.77" y="-13.32" font-family="Times,serif" font-size="14.00">$d$</text>
</g>
<!-- a&#45;&gt;d -->
<g id="edge3" class="edge">
<title>a&#45;&gt;d</title>
<path fill="none" stroke="black" d="M50.22,-68.9C58.42,-63.66 68.14,-57.76 77.28,-53 96.57,-42.95 101.22,-39.21 122.28,-33.75 159.4,-24.13 203.04,-20.35 234.1,-18.88"/>
<polygon fill="black" stroke="black" points="233.99,-22.39 243.84,-18.49 233.71,-15.4 233.99,-22.39"/>
<text xml:space="preserve" text-anchor="middle" x="152.44" y="-37.7" font-family="Times,serif" font-size="14.00">$9$</text>
</g>
<!-- b&#45;&gt;a -->
<g id="edge4" class="edge">
<title>b&#45;&gt;a</title>
<path fill="none" stroke="black" d="M128.78,-66.27C114.13,-60.13 94.63,-54.66 77.28,-58.75 71.94,-60.01 66.52,-61.97 61.35,-64.23"/>
<polygon fill="black" stroke="black" points="60.03,-60.99 52.57,-68.51 63.09,-67.28 60.03,-60.99"/>
<text xml:space="preserve" text-anchor="middle" x="90.78" y="-62.7" font-family="Times,serif" font-size="14.00">$7$</text>
</g>
<!-- b&#45;&gt;c -->
<g id="edge5" class="edge">
<title>b&#45;&gt;c</title>
<path fill="none" stroke="black" d="M179.22,-86.33C186.12,-88.38 193.6,-90.42 200.6,-92 265.78,-106.67 285.79,-106.88 350.93,-92 354.25,-91.24 357.68,-90.37 361.1,-89.44"/>
<polygon fill="black" stroke="black" points="361.75,-92.9 370.39,-86.77 359.81,-86.17 361.75,-92.9"/>
<text xml:space="preserve" text-anchor="middle" x="275.77" y="-107.03" font-family="Times,serif" font-size="14.00">$9$</text>
</g>
<!-- b&#45;&gt;d -->
<g id="edge6" class="edge">
<title>b&#45;&gt;d</title>
<path fill="none" stroke="black" d="M172.14,-64.26C180.58,-58.42 190.83,-51.81 200.6,-46.75 212.43,-40.63 225.88,-35.04 238.04,-30.45"/>
<polygon fill="black" stroke="black" points="239.16,-33.77 247.35,-27.05 236.75,-27.19 239.16,-33.77"/>
<text xml:space="preserve" text-anchor="middle" x="214.1" y="-50.7" font-family="Times,serif" font-size="14.00">$2$</text>
</g>
<!-- c&#45;&gt;b -->
<g id="edge7" class="edge">
<title>c&#45;&gt;b</title>
<path fill="none" stroke="black" d="M368.68,-78C325.6,-78 243.45,-78 194.04,-78"/>
<polygon fill="black" stroke="black" points="194.34,-74.5 184.34,-78 194.34,-81.5 194.34,-74.5"/>
<text xml:space="preserve" text-anchor="middle" x="275.77" y="-81.95" font-family="Times,serif" font-size="14.00">$1$</text>
</g>
<!-- c&#45;&gt;d -->
<g id="edge8" class="edge">
<title>c&#45;&gt;d</title>
<path fill="none" stroke="black" d="M391.19,-60.21C384.47,-43.03 371.64,-18.02 350.93,-6.75 338.98,-0.25 324.45,-0.93 311.42,-4"/>
<polygon fill="black" stroke="black" points="310.53,-0.62 301.91,-6.78 312.49,-7.34 310.53,-0.62"/>
<text xml:space="preserve" text-anchor="middle" x="337.43" y="-10.7" font-family="Times,serif" font-size="14.00">$4$</text>
</g>
<!-- d&#45;&gt;c -->
<g id="edge9" class="edge">
<title>d&#45;&gt;c</title>
<path fill="none" stroke="black" d="M302.79,-26.46C317.31,-31.58 335.52,-38.67 350.93,-46.75 357.08,-49.97 363.4,-53.84 369.32,-57.74"/>
<polygon fill="black" stroke="black" points="367.31,-60.61 377.54,-63.38 371.27,-54.84 367.31,-60.61"/>
<text xml:space="preserve" text-anchor="middle" x="337.43" y="-50.7" font-family="Times,serif" font-size="14.00">$8$</text>
</g>
</g>
</svg>
