<?xml version="1.0" encoding="UTF-8" standalone="no"?>
<!DOCTYPE svg PUBLIC "-//W3C//DTD SVG 1.1//EN"
 "http://www.w3.org/Graphics/SVG/1.1/DTD/svg11.dtd">
<!-- Generated by graphviz version 14.0.5 (0)
 -->
<!-- Pages: 1 -->
<svg width="251pt" height="262pt"
 viewBox="0.00 0.00 251.00 262.00" xmlns="http://www.w3.org/2000/svg" xmlns:xlink="http://www.w3.org/1999/xlink">
<g id="graph0" class="graph" transform="scale(1 1) rotate(0) translate(4 258.24)">
<polygon fill="white" stroke="none" points="-4,4 -4,-258.24 247,-258.24 247,4 -4,4"/>
<!-- 0 -->
<g id="node1" class="node">
<title>0</title>
<ellipse fill="none" stroke="black" cx="90" cy="-127.12" rx="27" ry="18"/>
<text xml:space="preserve" text-anchor="middle" x="90" y="-122.44" font-family="Times,serif" font-size="14.00">0</text>
</g>
<!-- 1 -->
<g id="node2" class="node">
<title>1</title>
<ellipse fill="none" stroke="black" cx="216" cy="-127.12" rx="27" ry="18"/>
<text xml:space="preserve" text-anchor="middle" x="216" y="-122.44" font-family="Times,serif" font-size="14.00">1</text>
</g>
<!-- 0&#45;&gt;1 -->
<g id="edge1" class="edge">
<title>0&#45;&gt;1</title>
<path fill="none" stroke="black" d="M116.11,-132.71C134.18,-134 158.52,-134.21 178.64,-133.35"/>
<polygon fill="black" stroke="black" points="178.63,-136.85 188.42,-132.79 178.23,-129.86 178.63,-136.85"/>
</g>
<!-- 2 -->
<g id="node3" class="node">
<title>2</title>
<ellipse fill="none" stroke="black" cx="27" cy="-236.24" rx="27" ry="18"/>
<text xml:space="preserve" text-anchor="middle" x="27" y="-231.56" font-family="Times,serif" font-size="14.00">2</text>
</g>
<!-- 0&#45;&gt;2 -->
<g id="edge3" class="edge">
<title>0&#45;&gt;2</title>
<path fill="none" stroke="black" d="M75.12,-142.55C63.14,-159.56 46.97,-187.14 36.6,-208.01"/>
<polygon fill="black" stroke="black" points="33.53,-206.32 32.4,-216.86 39.85,-209.32 33.53,-206.32"/>
</g>
<!-- 3 -->
<g id="node4" class="node">
<title>3</title>
<ellipse fill="none" stroke="black" cx="27" cy="-18" rx="27" ry="18"/>
<text xml:space="preserve" text-anchor="middle" x="27" y="-13.32" font-family="Times,serif" font-size="14.00">3</text>
</g>
<!-- 0&#45;&gt;3 -->
<g id="edge5" class="edge">
<title>0&#45;&gt;3</title>
<path fill="none" stroke="black" d="M85.22,-109.03C77.09,-90.88 61.32,-62.86 48.13,-42.68"/>
<polygon fill="black" stroke="black" points="51.07,-40.78 42.57,-34.46 45.27,-44.7 51.07,-40.78"/>
</g>
<!-- 1&#45;&gt;0 -->
<g id="edge2" class="edge">
<title>1&#45;&gt;0</title>
<path fill="none" stroke="black" d="M189.89,-121.53C171.82,-120.24 147.48,-120.02 127.36,-120.89"/>
<polygon fill="black" stroke="black" points="127.37,-117.39 117.58,-121.44 127.77,-124.38 127.37,-117.39"/>
</g>
<!-- 2&#45;&gt;0 -->
<g id="edge4" class="edge">
<title>2&#45;&gt;0</title>
<path fill="none" stroke="black" d="M41.88,-220.8C53.86,-203.8 70.03,-176.21 80.4,-155.34"/>
<polygon fill="black" stroke="black" points="83.47,-157.04 84.6,-146.5 77.15,-154.04 83.47,-157.04"/>
</g>
<!-- 3&#45;&gt;0 -->
<g id="edge6" class="edge">
<title>3&#45;&gt;0</title>
<path fill="none" stroke="black" d="M31.78,-36.08C39.91,-54.24 55.68,-82.26 68.87,-102.44"/>
<polygon fill="black" stroke="black" points="65.93,-104.34 74.43,-110.66 71.73,-100.42 65.93,-104.34"/>
</g>
</g>
</svg>
