<?xml version="1.0" encoding="UTF-8" standalone="no"?>
<!DOCTYPE svg PUBLIC "-//W3C//DTD SVG 1.1//EN"
 "http://www.w3.org/Graphics/SVG/1.1/DTD/svg11.dtd">
<!-- Generated by graphviz version 14.0.5 (0)
 -->
<!-- Pages: 1 -->
<svg width="152pt" height="206pt"
 viewBox="0.00 0.00 152.00 206.00" xmlns="http://www.w3.org/2000/svg" xmlns:xlink="http://www.w3.org/1999/xlink">
<g id="graph0" class="graph" transform="scale(1 1) rotate(0) translate(4 202)">
<polygon fill="white" stroke="none" points="-4,4 -4,-202 148,-202 148,4 -4,4"/>
<!-- 0 -->
<g id="node1" class="node">
<title>0</title>
<ellipse fill="none" stroke="black" cx="27" cy="-90" rx="27" ry="18"/>
<text xml:space="preserve" text-anchor="middle" x="27" y="-85.33" font-family="Times,serif" font-size="14.00">a</text>
</g>
<!-- 0&#45;&gt;0 -->
<g id="edge1" class="edge">
<title>0&#45;&gt;0</title>
<path fill="none" stroke="black" d="M11.77,-105.17C7.16,-115.66 12.23,-126 27,-126 36.23,-126 41.67,-121.96 43.33,-116.37"/>
<polygon fill="black" stroke="black" points="46.84,-116.28 42.38,-106.67 39.87,-116.97 46.84,-116.28"/>
</g>
<!-- 1 -->
<g id="node2" class="node">
<title>1</title>
<ellipse fill="none" stroke="black" cx="117" cy="-162" rx="27" ry="18"/>
<text xml:space="preserve" text-anchor="middle" x="117" y="-157.32" font-family="Times,serif" font-size="14.00">b</text>
</g>
<!-- 0&#45;&gt;1 -->
<g id="edge2" class="edge">
<title>0&#45;&gt;1</title>
<path fill="none" stroke="black" d="M44.97,-103.88C57.87,-114.44 75.84,-129.14 90.48,-141.12"/>
<polygon fill="black" stroke="black" points="87.96,-143.58 97.91,-147.2 92.39,-138.16 87.96,-143.58"/>
</g>
<!-- 2 -->
<g id="node3" class="node">
<title>2</title>
<ellipse fill="none" stroke="black" cx="117" cy="-90" rx="27" ry="18"/>
<text xml:space="preserve" text-anchor="middle" x="117" y="-85.33" font-family="Times,serif" font-size="14.00">c</text>
</g>
<!-- 0&#45;&gt;2 -->
<g id="edge3" class="edge">
<title>0&#45;&gt;2</title>
<path fill="none" stroke="black" d="M54.4,-90C61.89,-90 70.18,-90 78.2,-90"/>
<polygon fill="black" stroke="black" points="78.1,-93.5 88.1,-90 78.1,-86.5 78.1,-93.5"/>
</g>
<!-- 3 -->
<g id="node4" class="node">
<title>3</title>
<ellipse fill="none" stroke="black" cx="117" cy="-18" rx="27" ry="18"/>
<text xml:space="preserve" text-anchor="middle" x="117" y="-13.32" font-family="Times,serif" font-size="14.00">d</text>
</g>
<!-- 0&#45;&gt;3 -->
<g id="edge4" class="edge">
<title>0&#45;&gt;3</title>
<path fill="none" stroke="black" d="M44.97,-76.12C57.87,-65.56 75.84,-50.86 90.48,-38.88"/>
<polygon fill="black" stroke="black" points="92.39,-41.84 97.91,-32.8 87.96,-36.42 92.39,-41.84"/>
</g>
<!-- 1&#45;&gt;1 -->
<g id="edge5" class="edge">
<title>1&#45;&gt;1</title>
<path fill="none" stroke="black" d="M101.77,-177.17C97.16,-187.66 102.23,-198 117,-198 126.23,-198 131.67,-193.96 133.33,-188.37"/>
<polygon fill="black" stroke="black" points="136.84,-188.28 132.38,-178.67 129.87,-188.97 136.84,-188.28"/>
</g>
<!-- 2&#45;&gt;2 -->
<g id="edge6" class="edge">
<title>2&#45;&gt;2</title>
<path fill="none" stroke="black" d="M101.77,-105.17C97.16,-115.66 102.23,-126 117,-126 126.23,-126 131.67,-121.96 133.33,-116.37"/>
<polygon fill="black" stroke="black" points="136.84,-116.28 132.38,-106.67 129.87,-116.97 136.84,-116.28"/>
</g>
<!-- 3&#45;&gt;3 -->
<g id="edge7" class="edge">
<title>3&#45;&gt;3</title>
<path fill="none" stroke="black" d="M101.77,-33.17C97.16,-43.66 102.23,-54 117,-54 126.23,-54 131.67,-49.96 133.33,-44.37"/>
<polygon fill="black" stroke="black" points="136.84,-44.28 132.38,-34.67 129.87,-44.97 136.84,-44.28"/>
</g>
</g>
</svg>
