<?xml version="1.0" encoding="UTF-8" standalone="no"?>
<!DOCTYPE svg PUBLIC "-//W3C//DTD SVG 1.1//EN"
 "http://www.w3.org/Graphics/SVG/1.1/DTD/svg11.dtd">
<!-- Generated by graphviz version 14.0.5 (0)
 -->
<!-- Pages: 1 -->
<svg width="332pt" height="67pt"
 viewBox="0.00 0.00 332.00 67.00" xmlns="http://www.w3.org/2000/svg" xmlns:xlink="http://www.w3.org/1999/xlink">
<g id="graph0" class="graph" transform="scale(1 1) rotate(0) translate(4 63)">
<polygon fill="white" stroke="none" points="-4,4 -4,-63 328,-63 328,4 -4,4"/>
<!-- 0 -->
<g id="node1" class="node">
<title>0</title>
<ellipse fill="none" stroke="black" cx="27" cy="-18" rx="27" ry="18"/>
<text xml:space="preserve" text-anchor="middle" x="27" y="-13.32" font-family="Times,serif" font-size="14.00">a</text>
</g>
<!-- 1 -->
<g id="node2" class="node">
<title>1</title>
<ellipse fill="none" stroke="black" cx="117" cy="-41" rx="27" ry="18"/>
<text xml:space="preserve" text-anchor="middle" x="117" y="-36.33" font-family="Times,serif" font-size="14.00">b</text>
</g>
<!-- 0&#45;&gt;1 -->
<g id="edge1" class="edge">
<title>0&#45;&gt;1</title>
<path fill="none" stroke="black" d="M52.51,-24.41C61.12,-26.66 70.97,-29.23 80.3,-31.67"/>
<polygon fill="black" stroke="black" points="79.29,-35.02 89.85,-34.17 81.06,-28.25 79.29,-35.02"/>
</g>
<!-- 2 -->
<g id="node3" class="node">
<title>2</title>
<ellipse fill="none" stroke="black" cx="207" cy="-41" rx="27" ry="18"/>
<text xml:space="preserve" text-anchor="middle" x="207" y="-36.33" font-family="Times,serif" font-size="14.00">c</text>
</g>
<!-- 1&#45;&gt;2 -->
<g id="edge2" class="edge">
<title>1&#45;&gt;2</title>
<path fill="none" stroke="black" d="M144.4,-41C151.89,-41 160.18,-41 168.2,-41"/>
<polygon fill="black" stroke="black" points="168.1,-44.5 178.1,-41 168.1,-37.5 168.1,-44.5"/>
</g>
<!-- 3 -->
<g id="node4" class="node">
<title>3</title>
<ellipse fill="none" stroke="black" cx="297" cy="-18" rx="27" ry="18"/>
<text xml:space="preserve" text-anchor="middle" x="297" y="-13.32" font-family="Times,serif" font-size="14.00">d</text>
</g>
<!-- 2&#45;&gt;3 -->
<g id="edge3" class="edge">
<title>2&#45;&gt;3</title>
<path fill="none" stroke="black" d="M232.51,-34.59C241.12,-32.34 250.97,-29.77 260.3,-27.33"/>
<polygon fill="black" stroke="black" points="261.06,-30.75 269.85,-24.83 259.29,-23.98 261.06,-30.75"/>
</g>
<!-- 3&#45;&gt;0 -->
<g id="edge4" class="edge">
<title>3&#45;&gt;0</title>
<path fill="none" stroke="black" d="M269.77,-15.93C258.74,-15.16 245.75,-14.38 234,-14 170.03,-11.94 153.97,-11.94 90,-14 82.1,-14.25 73.65,-14.69 65.61,-15.18"/>
<polygon fill="black" stroke="black" points="65.49,-11.68 55.74,-15.83 65.95,-18.67 65.49,-11.68"/>
</g>
</g>
</svg>
