<?xml version="1.0" encoding="UTF-8" standalone="no"?>
<!DOCTYPE svg PUBLIC "-//W3C//DTD SVG 1.1//EN"
 "http://www.w3.org/Graphics/SVG/1.1/DTD/svg11.dtd">
<!-- Generated by graphviz version 13.1.2 (0)
 -->
<!-- Pages: 1 -->
<svg width="242pt" height="116pt"
 viewBox="0.00 0.00 242.00 116.00" xmlns="http://www.w3.org/2000/svg" xmlns:xlink="http://www.w3.org/1999/xlink">
<g id="graph0" class="graph" transform="scale(1 1) rotate(0) translate(4 112)">
<polygon fill="white" stroke="none" points="-4,4 -4,-112 238,-112 238,4 -4,4"/>
<!-- 0 -->
<g id="node1" class="node">
<title>0</title>
<ellipse fill="none" stroke="black" cx="27" cy="-18" rx="27" ry="18"/>
<text xml:space="preserve" text-anchor="middle" x="27" y="-13.32" font-family="Times,serif" font-size="14.00">a</text>
</g>
<!-- 2 -->
<g id="node3" class="node">
<title>2</title>
<ellipse fill="none" stroke="black" cx="117" cy="-46" rx="27" ry="18"/>
<text xml:space="preserve" text-anchor="middle" x="117" y="-41.33" font-family="Times,serif" font-size="14.00">c</text>
</g>
<!-- 0&#45;&gt;2 -->
<g id="edge1" class="edge">
<title>0&#45;&gt;2</title>
<path fill="none" stroke="black" d="M53.93,-20.03C63.91,-22.58 75.38,-26.16 85.74,-29.92"/>
<polygon fill="black" stroke="black" points="84.4,-33.16 94.99,-33.49 86.92,-26.63 84.4,-33.16"/>
</g>
<!-- 3 -->
<g id="node4" class="node">
<title>3</title>
<ellipse fill="none" stroke="black" cx="207" cy="-18" rx="27" ry="18"/>
<text xml:space="preserve" text-anchor="middle" x="207" y="-13.32" font-family="Times,serif" font-size="14.00">d</text>
</g>
<!-- 0&#45;&gt;3 -->
<g id="edge3" class="edge">
<title>0&#45;&gt;3</title>
<path fill="none" stroke="black" d="M53.5,-13.1C83.9,-10.88 134.93,-10.66 169.5,-12.43"/>
<polygon fill="black" stroke="black" points="168.84,-15.89 179.03,-13.01 169.27,-8.91 168.84,-15.89"/>
</g>
<!-- 1 -->
<g id="node2" class="node">
<title>1</title>
<ellipse fill="none" stroke="black" cx="27" cy="-72" rx="27" ry="18"/>
<text xml:space="preserve" text-anchor="middle" x="27" y="-67.33" font-family="Times,serif" font-size="14.00">b</text>
</g>
<!-- 1&#45;&gt;1 -->
<g id="edge7" class="edge">
<title>1&#45;&gt;1</title>
<path fill="none" stroke="black" d="M11.77,-87.17C7.16,-97.66 12.23,-108 27,-108 36.23,-108 41.67,-103.96 43.33,-98.37"/>
<polygon fill="black" stroke="black" points="46.84,-98.28 42.38,-88.67 39.87,-98.97 46.84,-98.28"/>
</g>
<!-- 2&#45;&gt;0 -->
<g id="edge2" class="edge">
<title>2&#45;&gt;0</title>
<path fill="none" stroke="black" d="M89.85,-43.91C79.88,-41.35 68.45,-37.78 58.15,-34.04"/>
<polygon fill="black" stroke="black" points="59.53,-30.82 48.94,-30.48 57.01,-37.35 59.53,-30.82"/>
</g>
<!-- 2&#45;&gt;3 -->
<g id="edge5" class="edge">
<title>2&#45;&gt;3</title>
<path fill="none" stroke="black" d="M137.53,-34.07C146.78,-30.25 158.13,-26.32 168.92,-23.12"/>
<polygon fill="black" stroke="black" points="169.69,-26.54 178.39,-20.5 167.82,-19.8 169.69,-26.54"/>
</g>
<!-- 3&#45;&gt;0 -->
<g id="edge4" class="edge">
<title>3&#45;&gt;0</title>
<path fill="none" stroke="black" d="M180.54,-22.9C150.16,-25.12 99.14,-25.34 64.55,-23.58"/>
<polygon fill="black" stroke="black" points="65.21,-20.11 55.01,-22.99 64.78,-27.1 65.21,-20.11"/>
</g>
<!-- 3&#45;&gt;2 -->
<g id="edge6" class="edge">
<title>3&#45;&gt;2</title>
<path fill="none" stroke="black" d="M186.4,-29.96C177.11,-33.79 165.7,-37.74 154.88,-40.94"/>
<polygon fill="black" stroke="black" points="154.09,-37.52 145.39,-43.56 155.96,-44.27 154.09,-37.52"/>
</g>
</g>
</svg>
