<?xml version="1.0" encoding="UTF-8" standalone="no"?>
<!DOCTYPE svg PUBLIC "-//W3C//DTD SVG 1.1//EN"
 "http://www.w3.org/Graphics/SVG/1.1/DTD/svg11.dtd">
<!-- Generated by graphviz version 14.0.5 (0)
 -->
<!-- Pages: 1 -->
<svg width="135pt" height="260pt"
 viewBox="0.00 0.00 135.00 260.00" xmlns="http://www.w3.org/2000/svg" xmlns:xlink="http://www.w3.org/1999/xlink">
<g id="graph0" class="graph" transform="scale(1 1) rotate(0) translate(4 256)">
<polygon fill="white" stroke="none" points="-4,4 -4,-256 131,-256 131,4 -4,4"/>
<!-- 1 -->
<g id="node1" class="node">
<title>1</title>
<ellipse fill="none" stroke="black" cx="54" cy="-234" rx="27" ry="18"/>
<text xml:space="preserve" text-anchor="middle" x="54" y="-229.32" font-family="Times,serif" font-size="14.00">1</text>
</g>
<!-- 1&#45;&gt;1 -->
<g id="edge1" class="edge">
<title>1&#45;&gt;1</title>
<path fill="none" stroke="black" d="M73.9,-246.43C86.69,-249.68 99,-245.53 99,-234 99,-225.98 93.05,-221.54 85.12,-220.66"/>
<polygon fill="black" stroke="black" points="85.09,-217.15 75.4,-221.45 85.65,-224.13 85.09,-217.15"/>
</g>
<!-- 2 -->
<g id="node2" class="node">
<title>2</title>
<ellipse fill="none" stroke="black" cx="82" cy="-162" rx="27" ry="18"/>
<text xml:space="preserve" text-anchor="middle" x="82" y="-157.32" font-family="Times,serif" font-size="14.00">2</text>
</g>
<!-- 1&#45;&gt;2 -->
<g id="edge2" class="edge">
<title>1&#45;&gt;2</title>
<path fill="none" stroke="black" d="M60.64,-216.41C63.77,-208.57 67.6,-198.99 71.15,-190.13"/>
<polygon fill="black" stroke="black" points="74.39,-191.46 74.85,-180.88 67.89,-188.86 74.39,-191.46"/>
</g>
<!-- 3 -->
<g id="node3" class="node">
<title>3</title>
<ellipse fill="none" stroke="black" cx="27" cy="-90" rx="27" ry="18"/>
<text xml:space="preserve" text-anchor="middle" x="27" y="-85.33" font-family="Times,serif" font-size="14.00">3</text>
</g>
<!-- 1&#45;&gt;3 -->
<g id="edge3" class="edge">
<title>1&#45;&gt;3</title>
<path fill="none" stroke="black" d="M50.74,-215.87C46.18,-191.88 37.84,-147.99 32.35,-119.16"/>
<polygon fill="black" stroke="black" points="35.86,-118.85 30.55,-109.68 28.98,-120.15 35.86,-118.85"/>
</g>
<!-- 2&#45;&gt;2 -->
<g id="edge4" class="edge">
<title>2&#45;&gt;2</title>
<path fill="none" stroke="black" d="M101.9,-174.43C114.69,-177.68 127,-173.53 127,-162 127,-153.98 121.05,-149.54 113.12,-148.66"/>
<polygon fill="black" stroke="black" points="113.09,-145.15 103.4,-149.45 113.65,-152.13 113.09,-145.15"/>
</g>
<!-- 2&#45;&gt;3 -->
<g id="edge5" class="edge">
<title>2&#45;&gt;3</title>
<path fill="none" stroke="black" d="M69.79,-145.46C62.89,-136.67 54.09,-125.48 46.27,-115.53"/>
<polygon fill="black" stroke="black" points="49.04,-113.38 40.11,-107.68 43.53,-117.71 49.04,-113.38"/>
</g>
<!-- 4 -->
<g id="node4" class="node">
<title>4</title>
<ellipse fill="none" stroke="black" cx="63" cy="-18" rx="27" ry="18"/>
<text xml:space="preserve" text-anchor="middle" x="63" y="-13.32" font-family="Times,serif" font-size="14.00">4</text>
</g>
<!-- 2&#45;&gt;4 -->
<g id="edge6" class="edge">
<title>2&#45;&gt;4</title>
<path fill="none" stroke="black" d="M83.4,-143.79C84.5,-125.76 85.22,-96.67 81,-72 79.55,-63.54 76.96,-54.6 74.19,-46.53"/>
<polygon fill="black" stroke="black" points="77.51,-45.42 70.77,-37.25 70.94,-47.84 77.51,-45.42"/>
</g>
<!-- 3&#45;&gt;3 -->
<g id="edge7" class="edge">
<title>3&#45;&gt;3</title>
<path fill="none" stroke="black" d="M46.9,-102.43C59.69,-105.68 72,-101.53 72,-90 72,-81.98 66.05,-77.54 58.12,-76.66"/>
<polygon fill="black" stroke="black" points="58.09,-73.15 48.4,-77.45 58.65,-80.13 58.09,-73.15"/>
</g>
<!-- 3&#45;&gt;4 -->
<g id="edge8" class="edge">
<title>3&#45;&gt;4</title>
<path fill="none" stroke="black" d="M35.35,-72.76C39.58,-64.55 44.81,-54.37 49.58,-45.09"/>
<polygon fill="black" stroke="black" points="52.54,-46.99 54,-36.49 46.32,-43.79 52.54,-46.99"/>
</g>
<!-- 4&#45;&gt;4 -->
<g id="edge9" class="edge">
<title>4&#45;&gt;4</title>
<path fill="none" stroke="black" d="M82.9,-30.43C95.69,-33.68 108,-29.53 108,-18 108,-9.98 102.05,-5.54 94.12,-4.66"/>
<polygon fill="black" stroke="black" points="94.09,-1.15 84.4,-5.45 94.65,-8.13 94.09,-1.15"/>
</g>
</g>
</svg>
