<?xml version="1.0" encoding="UTF-8" standalone="no"?>
<!DOCTYPE svg PUBLIC "-//W3C//DTD SVG 1.1//EN"
 "http://www.w3.org/Graphics/SVG/1.1/DTD/svg11.dtd">
<!-- Generated by graphviz version 14.0.5 (0)
 -->
<!-- Pages: 1 -->
<svg width="485pt" height="330pt"
 viewBox="0.00 0.00 485.00 330.00" xmlns="http://www.w3.org/2000/svg" xmlns:xlink="http://www.w3.org/1999/xlink">
<g id="graph0" class="graph" transform="scale(1 1) rotate(0) translate(4 326.31)">
<polygon fill="white" stroke="none" points="-4,4 -4,-326.31 481.37,-326.31 481.37,4 -4,4"/>
<!-- 1 -->
<g id="node1" class="node">
<title>1</title>
<ellipse fill="none" stroke="black" cx="351.37" cy="-252.21" rx="27" ry="18"/>
<text xml:space="preserve" text-anchor="middle" x="351.37" y="-247.54" font-family="Times,serif" font-size="14.00">1</text>
</g>
<!-- 2 -->
<g id="node2" class="node">
<title>2</title>
<ellipse fill="none" stroke="black" cx="261.13" cy="-200.11" rx="27" ry="18"/>
<text xml:space="preserve" text-anchor="middle" x="261.13" y="-195.44" font-family="Times,serif" font-size="14.00">2</text>
</g>
<!-- 1&#45;&gt;2 -->
<g id="edge1" class="edge">
<title>1&#45;&gt;2</title>
<path fill="none" stroke="black" d="M330.9,-240.39C319.33,-233.71 304.64,-225.23 291.72,-217.77"/>
<polygon fill="black" stroke="black" points="293.56,-214.8 283.15,-212.83 290.06,-220.86 293.56,-214.8"/>
</g>
<!-- 4 -->
<g id="node4" class="node">
<title>4</title>
<ellipse fill="none" stroke="black" cx="450.37" cy="-252.21" rx="27" ry="18"/>
<text xml:space="preserve" text-anchor="middle" x="450.37" y="-247.54" font-family="Times,serif" font-size="14.00">4</text>
</g>
<!-- 1&#45;&gt;4 -->
<g id="edge4" class="edge">
<title>1&#45;&gt;4</title>
<path fill="none" stroke="black" d="M377.13,-258.22C388.04,-258.96 400.97,-259.15 412.91,-258.78"/>
<polygon fill="black" stroke="black" points="413.07,-262.28 422.9,-258.31 412.74,-255.29 413.07,-262.28"/>
</g>
<!-- 3 -->
<g id="node3" class="node">
<title>3</title>
<ellipse fill="none" stroke="black" cx="261.13" cy="-304.31" rx="27" ry="18"/>
<text xml:space="preserve" text-anchor="middle" x="261.13" y="-299.64" font-family="Times,serif" font-size="14.00">3</text>
</g>
<!-- 2&#45;&gt;3 -->
<g id="edge2" class="edge">
<title>2&#45;&gt;3</title>
<path fill="none" stroke="black" d="M261.13,-218.26C261.13,-233.78 261.13,-256.42 261.13,-274.58"/>
<polygon fill="black" stroke="black" points="257.63,-274.51 261.13,-284.51 264.63,-274.51 257.63,-274.51"/>
</g>
<!-- 3&#45;&gt;1 -->
<g id="edge3" class="edge">
<title>3&#45;&gt;1</title>
<path fill="none" stroke="black" d="M281.61,-292.49C293.18,-285.81 307.87,-277.33 320.79,-269.87"/>
<polygon fill="black" stroke="black" points="322.45,-272.96 329.36,-264.93 318.95,-266.9 322.45,-272.96"/>
</g>
<!-- 4&#45;&gt;1 -->
<g id="edge5" class="edge">
<title>4&#45;&gt;1</title>
<path fill="none" stroke="black" d="M424.62,-246.21C413.71,-245.47 400.78,-245.28 388.84,-245.64"/>
<polygon fill="black" stroke="black" points="388.68,-242.15 378.85,-246.12 389.01,-249.14 388.68,-242.15"/>
</g>
<!-- a -->
<g id="node5" class="node">
<title>a</title>
<ellipse fill="none" stroke="black" cx="187.43" cy="-98.21" rx="27" ry="18"/>
<text xml:space="preserve" text-anchor="middle" x="187.43" y="-93.54" font-family="Times,serif" font-size="14.00">a</text>
</g>
<!-- b -->
<g id="node6" class="node">
<title>b</title>
<ellipse fill="none" stroke="black" cx="107.21" cy="-18" rx="27" ry="18"/>
<text xml:space="preserve" text-anchor="middle" x="107.21" y="-13.32" font-family="Times,serif" font-size="14.00">b</text>
</g>
<!-- a&#45;&gt;b -->
<g id="edge6" class="edge">
<title>a&#45;&gt;b</title>
<path fill="none" stroke="black" d="M172.34,-83.13C160.54,-71.33 143.93,-54.71 130.43,-41.22"/>
<polygon fill="black" stroke="black" points="133.12,-38.96 123.58,-34.36 128.17,-43.91 133.12,-38.96"/>
</g>
<!-- e -->
<g id="node9" class="node">
<title>e</title>
<ellipse fill="none" stroke="black" cx="286.43" cy="-98.21" rx="27" ry="18"/>
<text xml:space="preserve" text-anchor="middle" x="286.43" y="-93.54" font-family="Times,serif" font-size="14.00">e</text>
</g>
<!-- a&#45;&gt;e -->
<g id="edge10" class="edge">
<title>a&#45;&gt;e</title>
<path fill="none" stroke="black" d="M213.18,-104.22C224.09,-104.96 237.03,-105.15 248.97,-104.78"/>
<polygon fill="black" stroke="black" points="249.13,-108.28 258.95,-104.31 248.79,-101.29 249.13,-108.28"/>
</g>
<!-- c -->
<g id="node7" class="node">
<title>c</title>
<ellipse fill="none" stroke="black" cx="27" cy="-98.21" rx="27" ry="18"/>
<text xml:space="preserve" text-anchor="middle" x="27" y="-93.54" font-family="Times,serif" font-size="14.00">c</text>
</g>
<!-- b&#45;&gt;c -->
<g id="edge7" class="edge">
<title>b&#45;&gt;c</title>
<path fill="none" stroke="black" d="M92.13,-33.09C80.33,-44.89 63.71,-61.5 50.22,-74.99"/>
<polygon fill="black" stroke="black" points="47.96,-72.31 43.36,-81.85 52.91,-77.25 47.96,-72.31"/>
</g>
<!-- d -->
<g id="node8" class="node">
<title>d</title>
<ellipse fill="none" stroke="black" cx="107.21" cy="-178.43" rx="27" ry="18"/>
<text xml:space="preserve" text-anchor="middle" x="107.21" y="-173.75" font-family="Times,serif" font-size="14.00">d</text>
</g>
<!-- c&#45;&gt;d -->
<g id="edge8" class="edge">
<title>c&#45;&gt;d</title>
<path fill="none" stroke="black" d="M42.09,-113.3C53.89,-125.1 70.5,-141.72 83.99,-155.21"/>
<polygon fill="black" stroke="black" points="81.31,-157.47 90.85,-162.07 86.25,-152.52 81.31,-157.47"/>
</g>
<!-- d&#45;&gt;a -->
<g id="edge9" class="edge">
<title>d&#45;&gt;a</title>
<path fill="none" stroke="black" d="M122.3,-163.34C134.1,-151.54 150.72,-134.93 164.21,-121.43"/>
<polygon fill="black" stroke="black" points="166.47,-124.12 171.07,-114.58 161.52,-119.17 166.47,-124.12"/>
</g>
<!-- e&#45;&gt;a -->
<g id="edge11" class="edge">
<title>e&#45;&gt;a</title>
<path fill="none" stroke="black" d="M260.68,-92.21C249.76,-91.47 236.83,-91.28 224.89,-91.64"/>
<polygon fill="black" stroke="black" points="224.73,-88.15 214.91,-92.12 225.06,-95.14 224.73,-88.15"/>
</g>
</g>
</svg>
