<?xml version="1.0" encoding="UTF-8" standalone="no"?>
<!DOCTYPE svg PUBLIC "-//W3C//DTD SVG 1.1//EN"
 "http://www.w3.org/Graphics/SVG/1.1/DTD/svg11.dtd">
<!-- Generated by graphviz version 12.2.1 (0)
 -->
<!-- Pages: 1 -->
<svg width="152pt" height="62pt"
 viewBox="0.00 0.00 152.00 62.00" xmlns="http://www.w3.org/2000/svg" xmlns:xlink="http://www.w3.org/1999/xlink">
<g id="graph0" class="graph" transform="scale(1 1) rotate(0) translate(4 58)">
<polygon fill="white" stroke="none" points="-4,4 -4,-58 148,-58 148,4 -4,4"/>
<!-- a -->
<g id="node1" class="node">
<title>a</title>
<ellipse fill="none" stroke="black" cx="27" cy="-18" rx="27" ry="18"/>
<text text-anchor="middle" x="27" y="-13.32" font-family="Times,serif" font-size="14.00">a</text>
</g>
<!-- a&#45;&gt;a -->
<g id="edge1" class="edge">
<title>a&#45;&gt;a</title>
<path fill="none" stroke="black" d="M11.77,-33.17C7.16,-43.66 12.23,-54 27,-54 36.23,-54 41.67,-49.96 43.33,-44.37"/>
<polygon fill="black" stroke="black" points="46.84,-44.28 42.38,-34.67 39.87,-44.97 46.84,-44.28"/>
</g>
<!-- b -->
<g id="node2" class="node">
<title>b</title>
<ellipse fill="none" stroke="black" cx="117" cy="-18" rx="27" ry="18"/>
<text text-anchor="middle" x="117" y="-13.32" font-family="Times,serif" font-size="14.00">b</text>
</g>
<!-- a&#45;&gt;b -->
<g id="edge2" class="edge">
<title>a&#45;&gt;b</title>
<path fill="none" stroke="black" d="M52.51,-11.88C61.02,-11.29 70.75,-11.12 80,-11.35"/>
<polygon fill="black" stroke="black" points="79.65,-14.84 89.8,-11.8 79.97,-7.85 79.65,-14.84"/>
</g>
<!-- b&#45;&gt;a -->
<g id="edge3" class="edge">
<title>b&#45;&gt;a</title>
<path fill="none" stroke="black" d="M91.31,-24.14C82.79,-24.71 73.05,-24.88 63.82,-24.65"/>
<polygon fill="black" stroke="black" points="64.18,-21.16 54.02,-24.19 63.85,-28.15 64.18,-21.16"/>
</g>
</g>
</svg>
